<svg width="24" height="24" viewBox="0 0 24 24" fill="none" xmlns="http://www.w3.org/2000/svg">
<path d="M14.0988 3.26245L14.0989 3.26235C14.6064 2.73367 15.2075 2.31563 15.8674 2.0309C16.5272 1.74619 17.2336 1.6 17.9463 1.6C18.659 1.6 19.3653 1.74619 20.0251 2.0309C20.685 2.31563 21.2862 2.73367 21.7936 3.26235L21.7938 3.26255C22.3015 3.79103 22.7055 4.41982 22.9816 5.11357C23.2576 5.80737 23.4 6.55179 23.4 7.30411C23.4 8.05644 23.2576 8.80086 22.9816 9.49466C22.7055 10.1884 22.3015 10.8172 21.7938 11.3457L21.7937 11.3458L20.6274 12.5604L12.4997 21.0242L4.37203 12.5604L3.2057 11.3458C2.18019 10.2779 1.6 8.82445 1.6 7.30411C1.6 5.78378 2.18019 4.33037 3.2057 3.26245C4.23041 2.19535 5.61491 1.60061 7.05315 1.60061C8.49139 1.60061 9.87589 2.19535 10.9006 3.26245L12.0669 4.47702C12.1801 4.59484 12.3364 4.66144 12.4997 4.66144C12.6631 4.66144 12.8193 4.59484 12.9325 4.47702L14.0988 3.26245Z" stroke="currentColor" stroke-width="1.2" stroke-linecap="round" stroke-linejoin="round"/>
</svg>
