<?xml version="1.0" encoding="utf-8"?>
<!-- Generator: Adobe Illustrator 21.0.0, SVG Export Plug-In . SVG Version: 6.00 Build 0)  -->
<svg version="1.1" id="_x31_" xmlns="http://www.w3.org/2000/svg" xmlns:xlink="http://www.w3.org/1999/xlink" x="0px" y="0px"
	 viewBox="0 0 152 91.8" style="enable-background:new 0 0 152 91.8;" xml:space="preserve">
<style type="text/css">
	.st0{fill-rule:evenodd;clip-rule:evenodd;fill:#3A120A;}
</style>
<path class="st0" d="M81.5,28.3C81.5,23.2,76,17,76,17s-5.5,6.1-5.5,11.3c0,3.6,2.7,5.8,4.4,6.7c-0.7-0.7-1.5-2-1.5-3.7
	c0-3.2,2.6-7.1,2.6-7.1s2.6,3.9,2.6,7.1c0,1.8-0.8,3-1.5,3.7C78.7,34.1,81.5,31.9,81.5,28.3L81.5,28.3z M76,37.1
	c0,0-0.2-0.1-0.6-0.3L75,38.9c0.6,0.3,1,0.4,1,0.4s0.4-0.1,0.9-0.4l-0.3-2.1C76.2,37,76,37.1,76,37.1L76,37.1z M77.2,36.5l0.5,2
	c0.5-0.3,1-0.6,1.6-0.9l-1-1.7C77.8,36.1,77.5,36.3,77.2,36.5L77.2,36.5z M80.1,34.4c0.3-0.3,0.7-0.7,1-1l2.5,0.6
	c-0.5,0.6-1,1.1-1.6,1.5L80.1,34.4L80.1,34.4z M82.8,30.2l3.7-0.9c0.5-1.2,0.9-2.6,1-4.1l-4.3,2.6C83.2,28.7,83.1,29.5,82.8,30.2
	L82.8,30.2z M72.7,37.6c0.6,0.4,1.1,0.7,1.5,0.9l0.5-2c-0.3-0.2-0.7-0.4-1-0.6L72.7,37.6L72.7,37.6z M78.7,35.5
	c0.3-0.2,0.6-0.5,0.9-0.7l1.7,1.3c-0.5,0.4-1,0.8-1.4,1.1L78.7,35.5L78.7,35.5z M81.5,32.8l2.8,0.4c0.6-0.8,1.2-1.6,1.7-2.5
	l-3.5,0.5C82.2,31.7,81.9,32.3,81.5,32.8L81.5,32.8z M83.2,26.6c-0.1-1.1-0.3-2.1-0.7-3.2l4.1-5.5c0.6,1.8,0.9,3.7,1,5.4L83.2,26.6
	L83.2,26.6z M72.3,17.5c-0.8,1.3-1.6,2.8-2.3,4.3l-3.8-6.4c1-2.6,2.4-5.1,3.7-7.3L72.3,17.5L72.3,17.5z M76,12.5c0,0,1.1,1.2,2.4,3
	L79.9,5C77.8,2,76,0,76,0s-1.8,2-3.9,5l1.5,10.5C74.9,13.7,76,12.5,76,12.5L76,12.5z M82,21.9c-0.6-1.5-1.5-3-2.3-4.3l2.3-9.3
	c1.4,2.2,2.7,4.7,3.7,7.3L82,21.9L82,21.9z M69.5,23.3l-4.1-5.5c-0.6,1.8-0.9,3.7-1,5.4l4.4,3.3C68.9,25.5,69.1,24.4,69.5,23.3
	L69.5,23.3z M70.9,33.4c0.3,0.4,0.6,0.7,1,1L70,35.5c-0.5-0.5-1-1-1.6-1.5L70.9,33.4L70.9,33.4z M72.4,34.8c0.3,0.3,0.6,0.5,0.9,0.7
	l-1.2,1.6c-0.5-0.3-1-0.7-1.4-1.1L72.4,34.8L72.4,34.8z M69.5,31.1l-3.5-0.5c0.5,0.9,1.1,1.8,1.7,2.5l2.7-0.4
	C70.1,32.3,69.8,31.7,69.5,31.1L69.5,31.1z M68.7,27.8c0,0.9,0.2,1.7,0.4,2.5l-3.8-0.9c-0.5-1.2-0.9-2.6-1-4.1L68.7,27.8z"/>
<path class="st0" d="M1.7,69.6V57.3H0v12.3c0,4.8,2.6,7.9,7.4,8v-1.7C3.8,75.8,1.7,73.5,1.7,69.6L1.7,69.6z M15.6,69.6V57.3h-1.7
	v12.3c0,3.9-2,6.2-5.7,6.4v1.7C13.1,77.5,15.6,74.4,15.6,69.6L15.6,69.6z M36.6,61.4l1.4-0.9c-1.7-2.1-4.1-3.5-7.3-3.5v1.6
	C33.1,58.5,35.3,59.7,36.6,61.4L36.6,61.4z M22.4,67.3c0-5,3.3-8.4,7.6-8.8V57c-5.3,0.4-9.4,4.4-9.4,10.3c0,5.9,4.1,10,9.4,10.3V76
	C25.7,75.7,22.4,72.2,22.4,67.3L22.4,67.3z M38.1,74.1l-1.5-0.9c-1.3,1.7-3.4,2.9-5.8,2.9v1.6C33.9,77.6,36.3,76.2,38.1,74.1
	L38.1,74.1z M50.2,57.3h-1.8l-8.2,20h2L50.2,57.3L50.2,57.3z M50.8,57.7l7.9,19.6h-2l-6.8-17.2L50.8,57.7L50.8,57.7z M45.8,70.2h7.3
	l0.7,1.7h-8.6L45.8,70.2L45.8,70.2z M62.1,57.3l14.1,20h2.4l-14.3-20H62.1L62.1,57.3z M76.7,73.5V57.3h1.7v18.5L76.7,73.5L76.7,73.5
	z M63.9,61.4v15.8h-1.7V59L63.9,61.4L63.9,61.4z M84.1,77.3h1.7v-20h-1.7V77.3L84.1,77.3z M90.5,75.7h-3.9v1.6h3.9
	c6.2,0,10.1-4.3,10.1-10.2c0-5.8-4-9.8-10.1-9.8h-3.9v1.6h3.9c5.2,0,8.3,3.5,8.3,8.3C98.8,72.3,95.6,75.7,90.5,75.7L90.5,75.7z
	 M105.3,77.3h1.7v-20h-1.7V77.3L105.3,77.3z M107.7,75.7v1.6h8.9v-1.6H107.7L107.7,75.7z M121,77.3h1.7v-20H121V77.3L121,77.3z
	 M123.4,57.3v1.6h10.2v-1.6H123.4L123.4,57.3z M123.4,66.2v1.6h10v-1.6H123.4L123.4,66.2z M123.4,75.7v1.6h10.2v-1.6H123.4
	L123.4,75.7z M140,62.2c0-2.1,1.9-3.6,4.6-3.7v-1.6c-3.5,0.1-6.4,2.1-6.4,5.3c0,3.6,3.3,4.6,6.4,5.4v-1.9
	C142.1,65.1,140,64.3,140,62.2L140,62.2z M150.4,61l1.1-1.3c-1.4-1.7-3.5-2.7-6.2-2.8v1.6C147.3,58.6,149.1,59.4,150.4,61L150.4,61z
	 M152,72c0-4-3.5-5.1-6.7-6v1.9c2.6,0.8,4.9,1.6,4.9,4.2c0,1.7-1.1,3.9-4.9,4v1.6C150.4,77.5,152,74.5,152,72L152,72z M138.7,73.2
	l-1.1,1.3c1.5,1.8,3.8,3.1,7,3.2v-1.6C141.9,75.9,139.9,74.6,138.7,73.2z"/>
<path class="st0" d="M35.2,89.2c0,0.2,0.1,0.3,0.3,0.3c0.2,0,0.3-0.1,0.3-0.3v-0.9c0.5,0.7,1.3,1.1,2.3,1.1c1.6,0,2.8-1.3,2.8-2.9
	c0-1.6-1.3-3-2.8-3c-0.9,0-1.7,0.5-2.3,1.2v-3.4c0-0.2-0.1-0.3-0.3-0.3c-0.2,0-0.3,0.1-0.3,0.3v5.1v0.1v0.1V89.2L35.2,89.2z
	 M35.8,86.5c0-1.3,1-2.3,2.3-2.3c1.2,0,2.3,1.1,2.3,2.4c0,1.3-1,2.3-2.3,2.3C36.8,88.9,35.8,87.9,35.8,86.5L35.8,86.5L35.8,86.5z
	 M42.3,87.1c0,1.3,1.1,2.4,2.4,2.4c0.7,0,1.4-0.3,1.8-0.8v0.4c0,1.2-1,2.2-2.2,2.2c-0.3,0-0.7-0.1-1-0.2c-0.1,0-0.3,0-0.4,0.1
	c-0.1,0.1,0,0.3,0.1,0.4c0.4,0.2,0.8,0.3,1.2,0.3c1.5,0,2.8-1.2,2.8-2.7v-1.8v-0.1v-3.2c0,0,0-0.1,0-0.1c0,0,0-0.1-0.1-0.1
	c0,0-0.1,0-0.1-0.1h0h0c0,0,0,0,0,0h0c0,0-0.1,0-0.1,0.1c0,0,0,0,0,0c0,0,0,0,0,0c0,0,0,0.1,0,0.1v3.2c0,1-0.8,1.8-1.8,1.8
	c-1,0-1.8-0.8-1.8-1.8v-3.2c0-0.2-0.1-0.3-0.3-0.3c-0.1,0-0.3,0.1-0.3,0.3V87.1L42.3,87.1z M53.6,89.2c0,0.2,0.1,0.3,0.3,0.3h0h0
	h4.3c0.2,0,0.3-0.1,0.3-0.3c0-0.2-0.1-0.3-0.3-0.3h-4v-3.3h3.5c0.2,0,0.3-0.1,0.3-0.3c0-0.2-0.1-0.3-0.3-0.3h-3.5v-3.3h4
	c0.2,0,0.3-0.1,0.3-0.3c0-0.2-0.1-0.3-0.3-0.3h-4.3h0c-0.2,0-0.3,0.1-0.3,0.3V89.2L53.6,89.2z M62.4,89.5
	C62.4,89.5,62.4,89.5,62.4,89.5c0.1,0,0.1,0,0.1,0c0.1,0,0.1,0,0.2-0.1c0,0,0.1-0.1,0.1-0.1l2.2-5.2c0.1-0.1,0-0.3-0.1-0.4
	c-0.1-0.1-0.3,0-0.4,0.2l-2,4.6l-2-4.6c0-0.1-0.2-0.2-0.4-0.2C60,83.8,60,83.9,60,84.1l2.2,5.3C62.3,89.4,62.3,89.4,62.4,89.5
	C62.4,89.5,62.4,89.5,62.4,89.5L62.4,89.5L62.4,89.5z M72.3,83.9c0-0.2-0.1-0.3-0.3-0.3c-0.2,0-0.3,0.1-0.3,0.3l0,0v0.9
	c-0.5-0.7-1.3-1.2-2.2-1.2c-1.5,0-2.8,1.3-2.8,2.9c0,1.6,1.2,2.9,2.8,2.9c0.9,0,1.7-0.4,2.2-1.2V89c0,1.2-1,2.2-2.2,2.2
	c-0.4,0-0.7-0.1-1-0.2c-0.1-0.1-0.3,0-0.4,0.1c-0.1,0.1,0,0.3,0.1,0.4c0.4,0.2,0.8,0.3,1.2,0.3c1.5,0,2.8-1.2,2.8-2.8V83.9
	L72.3,83.9z M69.5,88.9c-1.2,0-2.2-1-2.2-2.4c0-1.3,1-2.3,2.2-2.3c1.2,0,2.2,1,2.2,2.3C71.7,87.9,70.7,88.9,69.5,88.9L69.5,88.9z
	 M77.5,89.5c1,0,1.9-0.5,2.4-1.3c0.1-0.1,0-0.3-0.1-0.4c-0.1-0.1-0.3,0-0.4,0.1c-0.4,0.7-1.1,1.1-1.9,1.1c-1.2,0-2.2-1-2.3-2.3H80
	c0.2,0,0.3-0.1,0.3-0.3v0v0c-0.1-1.5-1.3-2.7-2.8-2.7c-1.6,0-2.9,1.3-2.9,3C74.6,88.2,75.9,89.5,77.5,89.5L77.5,89.5z M77.5,84.2
	c1.1,0,2,0.8,2.2,1.9h-4.5C75.5,85,76.4,84.2,77.5,84.2L77.5,84.2z M86.6,89.2c0,0.2,0.1,0.3,0.3,0.3c0.2,0,0.3-0.1,0.3-0.3V86
	c0-1.3-1.1-2.4-2.4-2.4c-0.7,0-1.4,0.3-1.8,0.9v-0.6c0-0.2-0.1-0.3-0.3-0.3c-0.2,0-0.3,0.1-0.3,0.3v2V86v3.2v0.1c0,0,0,0,0,0
	c0,0,0,0,0,0c0,0.1,0.1,0.1,0.2,0.2h0.1c0.1,0,0.2,0,0.2-0.1c0,0,0-0.1,0.1-0.1v0V86c0-1,0.8-1.8,1.8-1.8c1,0,1.8,0.8,1.8,1.8V89.2
	L86.6,89.2z M89.7,89.2L89.7,89.2c0,0.2,0.1,0.3,0.3,0.3l0,0c0.2,0,0.3-0.1,0.3-0.3v-5.3l0,0c0-0.2-0.1-0.3-0.3-0.3l0,0
	c-0.2,0-0.3,0.1-0.3,0.3V89.2L89.7,89.2z M89.7,82.3L89.7,82.3c0,0.2,0.1,0.3,0.3,0.3l0,0c0.2,0,0.3-0.1,0.3-0.3V82l0,0
	c0-0.2-0.1-0.3-0.3-0.3l0,0c-0.2,0-0.3,0.1-0.3,0.3V82.3L89.7,82.3z M103,85.7v2.5c-0.6,0.5-1.4,0.7-2.2,0.7c-2.1,0-3.8-1.6-3.8-3.7
	c0-2,1.7-3.7,3.8-3.7c0.9,0,1.7,0.3,2.3,0.8c0.1,0.1,0.3,0.1,0.4,0c0.1-0.1,0.1-0.3,0-0.4c-0.8-0.6-1.7-0.9-2.7-0.9
	c-2.4,0-4.4,1.9-4.4,4.2c0,2.4,2,4.3,4.4,4.3c1,0,2-0.3,2.7-0.9c0.1,0,0.1-0.1,0.1-0.2v0v-2.9c0-0.2-0.1-0.3-0.3-0.3h0h-2.6
	c-0.2,0-0.3,0.1-0.3,0.3s0.1,0.3,0.3,0.3H103L103,85.7z M105.9,86.6L105.9,86.6c0,1.6,1.2,2.9,2.8,2.9l0,0c1.5,0,2.8-1.3,2.8-2.9
	l0,0c0-1.6-1.2-2.9-2.8-2.9l0,0C107.2,83.6,105.9,85,105.9,86.6L105.9,86.6z M106.5,86.6L106.5,86.6c0-1.3,1-2.4,2.2-2.4l0,0
	c1.2,0,2.2,1.1,2.2,2.4l0,0c0,1.3-1,2.4-2.2,2.4l0,0C107.5,88.9,106.5,87.9,106.5,86.6L106.5,86.6z M113.5,89.2
	c0,0.2,0.1,0.3,0.3,0.3c0.1,0,0.3-0.1,0.3-0.3v-2.6c0,0,0,0,0-0.1c0.1-0.2,0.3-0.8,0.7-1.4c0.4-0.5,0.9-1,1.7-1
	c0.2,0,0.3-0.1,0.3-0.3c0-0.2-0.1-0.3-0.3-0.3c-1.1,0-1.9,0.7-2.4,1.4c0,0-0.1,0.1-0.1,0.1v-1.3c0-0.2-0.1-0.3-0.3-0.3
	c-0.2,0-0.3,0.1-0.3,0.3V89.2z"/>
</svg>
