<svg width="29" height="29" viewBox="0 0 29 29" fill="none" xmlns="http://www.w3.org/2000/svg">
<path d="M7.41973 2.63977L3.83496 7.41946V24.1484C3.83496 24.7822 4.08675 25.3901 4.53493 25.8382C4.98311 26.2864 5.59098 26.5382 6.2248 26.5382H22.9537C23.5875 26.5382 24.1954 26.2864 24.6436 25.8382C25.0918 25.3901 25.3436 24.7822 25.3436 24.1484V7.41946L21.7588 2.63977H7.41973Z" stroke="currentColor" stroke-width="1.5" stroke-linecap="round" stroke-linejoin="round"/>
<path d="M3.83496 7.41956H25.3436" stroke="currentColor" stroke-width="1.5" stroke-linecap="round" stroke-linejoin="round"/>
<path d="M19.3685 12.1993C19.3685 13.4669 18.8649 14.6827 17.9685 15.579C17.0722 16.4754 15.8564 16.979 14.5888 16.979C13.3211 16.979 12.1054 16.4754 11.209 15.579C10.3127 14.6827 9.80908 13.4669 9.80908 12.1993" stroke="currentColor" stroke-width="1.5" stroke-linecap="round" stroke-linejoin="round"/>
</svg>
